<svg xmlns="http://www.w3.org/2000/svg" xmlns:xlink="http://www.w3.org/1999/xlink" version="1.1" x="0px" y="0px" viewBox="0 0 100 125" enable-background="new 0 0 100 100" xml:space="preserve">
  <path d="M61,43h-3v-0.257c1.222-1.009,2-2.535,2-4.243c0-3.038-2.463-5.5-5.5-5.5c-0.776,0-1.515,0.163-2.185,0.453  C51.032,31.954,49.129,31,47,31c-3.866,0-7,3.134-7,7c0,1.906,0.764,3.632,2,4.895V57c0,0.552,0.447,1,1,1h14c0.553,0,1-0.448,1-1  v-2h3c0.553,0,1-0.448,1-1V44C62,43.448,61.553,43,61,43z M56,56H44V44.317C44.91,44.75,45.925,45,47,45  c1.795,0,3.428-0.682,4.666-1.792C52.495,43.707,53.462,44,54.5,44c0.521,0,1.022-0.077,1.5-0.212V56z M60,53h-2v-8h2V53z"/>
  <path d="M47,48c-0.553,0-1,0.448-1,1v5c0,0.552,0.447,1,1,1s1-0.448,1-1v-5C48,48.448,47.553,48,47,48z"/>
  <path d="M53,48c-0.553,0-1,0.448-1,1v5c0,0.552,0.447,1,1,1s1-0.448,1-1v-5C54,48.448,53.553,48,53,48z"/>
  <path d="M50,19c-6.65,0-13.31,2.54-18.38,7.62C26.75,31.48,24.11,37.71,24,44c-0.11,6.82,2.72,13.71,8,19l18,18  l18-18c5.28-5.29,8.11-12.18,8-19c-0.11-6.29-2.75-12.52-7.62-17.38C63.31,21.54,56.65,19,50,19z M50,65c-11.05,0-20-8.95-20-20  s8.95-20,20-20s20,8.95,20,20S61.05,65,50,65z"/>
</svg>
