<?xml version="1.0" standalone="no"?><!-- Generator: Gravit.io --><svg xmlns="http://www.w3.org/2000/svg" xmlns:xlink="http://www.w3.org/1999/xlink" style="isolation:isolate" viewBox="0 0 62 62" width="62" height="62"><defs><clipPath id="_clipPath_Nq2kkUxMSZbhdxA3DLKOlvgoVeHC7CkZ"><rect width="62" height="62"/></clipPath></defs><g clip-path="url(#_clipPath_Nq2kkUxMSZbhdxA3DLKOlvgoVeHC7CkZ)"><path d=" M 9.505 25.5 C 9.505 13.519 19.138 3.792 31.003 3.792 C 42.868 3.792 52.502 13.519 52.502 25.5 C 52.502 37.481 42.868 47.208 31.003 47.208 C 19.138 47.208 9.505 37.481 9.505 25.5 Z " fill="rgb(249,250,247)"/><path d=" M 42.003 24 L 39.003 24 L 39.003 23.743 C 40.225 22.734 41.003 21.208 41.003 19.5 C 41.003 16.462 38.54 14 35.503 14 C 34.727 14 33.988 14.163 33.318 14.453 C 32.035 12.954 30.132 12 28.003 12 C 24.137 12 21.003 15.134 21.003 19 C 21.003 20.906 21.767 22.632 23.003 23.895 L 23.003 38 C 23.003 38.552 23.45 39 24.003 39 L 38.003 39 C 38.556 39 39.003 38.552 39.003 38 L 39.003 36 L 42.003 36 C 42.556 36 43.003 35.552 43.003 35 L 43.003 25 C 43.003 24.448 42.556 24 42.003 24 Z  M 37.003 37 L 25.003 37 L 25.003 25.317 C 25.913 25.75 26.928 26 28.003 26 C 29.798 26 31.431 25.318 32.669 24.208 C 33.498 24.707 34.465 25 35.503 25 C 36.024 25 36.525 24.923 37.003 24.788 L 37.003 37 Z  M 41.003 34 L 39.003 34 L 39.003 26 L 41.003 26 L 41.003 34 Z " fill="rgb(0,0,0)"/><path d=" M 28.003 29 C 27.45 29 27.003 29.448 27.003 30 L 27.003 35 C 27.003 35.552 27.45 36 28.003 36 C 28.556 36 29.003 35.552 29.003 35 L 29.003 30 C 29.003 29.448 28.556 29 28.003 29 Z " fill="rgb(0,0,0)"/><path d=" M 34.003 29 C 33.45 29 33.003 29.448 33.003 30 L 33.003 35 C 33.003 35.552 33.45 36 34.003 36 C 34.556 36 35.003 35.552 35.003 35 L 35.003 30 C 35.003 29.448 34.556 29 34.003 29 Z " fill="rgb(0,0,0)"/><path d=" M 31.003 0 C 24.353 0 17.693 2.54 12.623 7.62 C 7.753 12.48 5.113 18.71 5.003 25 C 4.893 31.82 7.723 38.71 13.003 44 L 31.003 62 L 49.003 44 C 54.283 38.71 57.113 31.82 57.003 25 C 56.893 18.71 54.253 12.48 49.383 7.62 C 44.313 2.54 37.653 0 31.003 0 Z  M 31.003 46 C 19.953 46 11.003 37.05 11.003 26 C 11.003 14.95 19.953 6 31.003 6 C 42.053 6 51.003 14.95 51.003 26 C 51.003 37.05 42.053 46 31.003 46 Z " fill="rgb(0,0,0)"/></g></svg>